<svg xmlns="http://www.w3.org/2000/svg" xmlns:xlink="http://www.w3.org/1999/xlink" version="1.1" width="225px" height="225px" style="shape-rendering:geometricPrecision; text-rendering:geometricPrecision; image-rendering:optimizeQuality; fill-rule:evenodd; clip-rule:evenodd">
<g><path style="opacity:1" fill="none" d="M -0.5,-0.5 C 71.5,-0.5 143.5,-0.5 215.5,-0.5C 170.422,37.22 125.088,74.72 79.5,112C 73.8333,117.667 68.1667,123.333 62.5,129C 48.6794,133.489 36.5128,140.655 26,150.5C 18.5009,160.497 12.8343,171.497 9,183.5C 5.4928,195.535 2.32614,207.535 -0.5,219.5C -0.5,146.167 -0.5,72.8333 -0.5,-0.5 Z"/></g>
<g><path style="opacity:1" fill="none" d="M 215.5,-0.5 C 216.833,-0.5 218.167,-0.5 219.5,-0.5C 220.833,1.5 222.5,3.16667 224.5,4.5C 224.5,5.83333 224.5,7.16667 224.5,8.5C 186.78,53.5784 149.28,98.9118 112,144.5C 106,150.5 100,156.5 94,162.5C 82.9699,182.861 67.8032,199.361 48.5,212C 36.2436,218.92 23.2436,223.087 9.5,224.5C 6.16667,224.5 2.83333,224.5 -0.5,224.5C -0.5,222.833 -0.5,221.167 -0.5,219.5C 2.32614,207.535 5.4928,195.535 9,183.5C 12.8343,171.497 18.5009,160.497 26,150.5C 36.5128,140.655 48.6794,133.489 62.5,129C 68.1667,123.333 73.8333,117.667 79.5,112C 125.088,74.72 170.422,37.22 215.5,-0.5 Z"/></g>
<g><path style="opacity:1" fill="none" d="M 219.5,-0.5 C 221.167,-0.5 222.833,-0.5 224.5,-0.5C 224.5,1.16667 224.5,2.83333 224.5,4.5C 222.5,3.16667 220.833,1.5 219.5,-0.5 Z"/></g>
<g><path style="opacity:1" fill="none" d="M 224.5,8.5 C 224.5,80.5 224.5,152.5 224.5,224.5C 152.833,224.5 81.1667,224.5 9.5,224.5C 23.2436,223.087 36.2436,218.92 48.5,212C 67.8032,199.361 82.9699,182.861 94,162.5C 100,156.5 106,150.5 112,144.5C 149.28,98.9118 186.78,53.5784 224.5,8.5 Z"/></g>
<g><path style="opacity:1" fill="#fafafa" d="M 208.5,14.5 C 209.525,14.8966 209.692,15.5632 209,16.5C 174.956,56.8751 141.289,97.5418 108,138.5C 106.887,140.329 105.387,141.163 103.5,141C 96.6667,134.167 89.8333,127.333 83,120.5C 82.3333,119.833 82.3333,119.167 83,118.5C 125.023,83.969 166.856,49.3023 208.5,14.5 Z"/></g>
<g><path style="opacity:1" fill="#f9f9f9" d="M 75.5,124.5 C 84.0917,131.422 92.0917,139.089 99.5,147.5C 96.8496,150.651 94.0162,153.651 91,156.5C 83.1667,148.667 75.3333,140.833 67.5,133C 70.3714,130.297 73.0381,127.464 75.5,124.5 Z"/></g>
<g><path style="opacity:1" fill="#fcfcfc" d="M 58.5,137.5 C 59.8734,137.343 61.2068,137.51 62.5,138C 70.3333,145.833 78.1667,153.667 86,161.5C 73.4685,187.018 53.6352,204.518 26.5,214C 20.2387,215.619 13.9053,216.786 7.5,217.5C 10.5773,198.101 16.744,179.768 26,162.5C 29.0834,157.412 32.9167,152.912 37.5,149C 44.2732,144.616 51.2732,140.783 58.5,137.5 Z"/></g>
</svg>
