<svg xmlns="http://www.w3.org/2000/svg" xmlns:xlink="http://www.w3.org/1999/xlink" version="1.1" width="512px" height="512px" style="shape-rendering:geometricPrecision; text-rendering:geometricPrecision; image-rendering:optimizeQuality; fill-rule:evenodd; clip-rule:evenodd">
<g><path style="opacity:0.946" fill="#000000" d="M 511.5,210.5 C 511.5,217.167 511.5,223.833 511.5,230.5C 508.93,238.968 504.764,246.635 499,253.5C 423.528,327.305 348.361,401.472 273.5,476C 266.493,481.003 258.826,484.67 250.5,487C 216.539,488.632 182.539,488.965 148.5,488C 136.692,485.929 126.359,480.929 117.5,473C 81.6667,437.833 45.8333,402.667 10,367.5C 5.27184,360.988 1.77184,353.988 -0.5,346.5C -0.5,340.167 -0.5,333.833 -0.5,327.5C 1.36668,319.767 4.86668,312.767 10,306.5C 101.167,215.333 192.333,124.167 283.5,33C 305.604,18.2152 326.938,19.2152 347.5,36C 397.667,86.1667 447.833,136.333 498,186.5C 504.343,193.526 508.843,201.526 511.5,210.5 Z M 309.5,46.5 C 316.535,46.0077 322.868,47.841 328.5,52C 379.667,103.167 430.833,154.333 482,205.5C 488.915,214.966 489.248,224.633 483,234.5C 444.028,272.472 405.361,310.805 367,349.5C 306.167,288.667 245.333,227.833 184.5,167C 223.5,128 262.5,89 301.5,50C 304.309,48.9066 306.976,47.7399 309.5,46.5 Z M 166.5,184.5 C 227.479,244.812 288.146,305.479 348.5,366.5C 318.319,397.514 287.652,428.014 256.5,458C 252.952,459.941 249.286,461.607 245.5,463C 214.873,464.628 184.207,464.961 153.5,464C 148.481,463.327 143.814,461.66 139.5,459C 101.696,422.863 64.1956,386.363 27,349.5C 22.3333,341.167 22.3333,332.833 27,324.5C 73.7014,277.965 120.201,231.299 166.5,184.5 Z"/></g>
</svg>
