<svg xmlns="http://www.w3.org/2000/svg" xmlns:xlink="http://www.w3.org/1999/xlink" version="1.1" width="225px" height="225px" style="shape-rendering:geometricPrecision; text-rendering:geometricPrecision; image-rendering:optimizeQuality; fill-rule:evenodd; clip-rule:evenodd">
<g><path style="opacity:1" fill="#fefefe" d="M -0.5,-0.5 C 5.5,-0.5 11.5,-0.5 17.5,-0.5C 17.4088,20.5553 18.4088,41.5553 20.5,62.5C 23.5,62.5 26.5,62.5 29.5,62.5C 34.6306,47.1088 39.9639,31.7755 45.5,16.5C 59.5,16.5 73.5,16.5 87.5,16.5C 87.5,80.1667 87.5,143.833 87.5,207.5C 77.3629,209.327 67.3629,211.66 57.5,214.5C 57.5,217.833 57.5,221.167 57.5,224.5C 38.1667,224.5 18.8333,224.5 -0.5,224.5C -0.5,149.5 -0.5,74.5 -0.5,-0.5 Z"/></g>
<g><path style="opacity:1" fill="#333333" d="M 17.5,-0.5 C 80.5,-0.5 143.5,-0.5 206.5,-0.5C 206.852,20.5695 205.852,41.5695 203.5,62.5C 200.5,62.5 197.5,62.5 194.5,62.5C 189.572,47.3837 184.238,32.3837 178.5,17.5C 164.516,16.5008 150.516,16.1674 136.5,16.5C 136.333,80.1675 136.5,143.834 137,207.5C 146.65,209.364 156.15,211.864 165.5,215C 166.451,218.057 166.784,221.223 166.5,224.5C 130.167,224.5 93.8333,224.5 57.5,224.5C 57.5,221.167 57.5,217.833 57.5,214.5C 67.3629,211.66 77.3629,209.327 87.5,207.5C 87.5,143.833 87.5,80.1667 87.5,16.5C 73.5,16.5 59.5,16.5 45.5,16.5C 39.9639,31.7755 34.6306,47.1088 29.5,62.5C 26.5,62.5 23.5,62.5 20.5,62.5C 18.4088,41.5553 17.4088,20.5553 17.5,-0.5 Z"/></g>
<g><path style="opacity:1" fill="#fefefe" d="M 206.5,-0.5 C 212.5,-0.5 218.5,-0.5 224.5,-0.5C 224.5,74.5 224.5,149.5 224.5,224.5C 205.167,224.5 185.833,224.5 166.5,224.5C 166.784,221.223 166.451,218.057 165.5,215C 156.15,211.864 146.65,209.364 137,207.5C 136.5,143.834 136.333,80.1675 136.5,16.5C 150.516,16.1674 164.516,16.5008 178.5,17.5C 184.238,32.3837 189.572,47.3837 194.5,62.5C 197.5,62.5 200.5,62.5 203.5,62.5C 205.852,41.5695 206.852,20.5695 206.5,-0.5 Z"/></g>
</svg>
